<svg xmlns="http://www.w3.org/2000/svg" xmlns:xlink="http://www.w3.org/1999/xlink" width="500" zoomAndPan="magnify" viewBox="0 0 375 374.999991" height="500" preserveAspectRatio="xMidYMid meet" version="1.0"><defs><g/><clipPath id="a21d7a0d17"><rect x="0" width="123" y="0" height="39"/></clipPath><clipPath id="4810913ef9"><rect x="0" width="124" y="0" height="39"/></clipPath><clipPath id="86d16526ca"><rect x="0" width="44" y="0" height="57"/></clipPath><clipPath id="a60aca8ce4"><rect x="0" width="54" y="0" height="57"/></clipPath></defs><g transform="matrix(1, 0, 0, 1, 126, 99)"><g clip-path="url(#a21d7a0d17)"><g fill="#ffffff" fill-opacity="1"><g transform="translate(8.767809, 35.160964)"><g><path d="M 8.640625 -7.125 L 2.984375 -13.984375 L 2.984375 -13.96875 L 5.65625 -4.65625 L 4.890625 -4.03125 L -3.671875 -8.40625 L 1.9375 -1.59375 L 1.109375 -0.90625 L -5.484375 -8.921875 L -4.296875 -9.90625 L 4.359375 -5.5 L 1.671875 -14.8125 L 2.875 -15.8125 L 9.46875 -7.796875 Z M 8.640625 -7.125 "/></g></g></g><g fill="#ffffff" fill-opacity="1"><g transform="translate(25.753886, 22.703959)"><g><path d="M 1.046875 -0.484375 L 0.046875 -0.015625 L -0.203125 -11.3125 L 0.921875 -11.828125 L 9.3125 -4.25 L 8.265625 -3.765625 L 6.125 -5.71875 L 0.984375 -3.375 Z M 5.328125 -6.4375 L 0.796875 -10.546875 L 0.9375 -4.4375 Z M 5.328125 -6.4375 "/></g></g></g><g fill="#ffffff" fill-opacity="1"><g transform="translate(42.280028, 16.204856)"><g><path d="M 1.8125 -9.921875 L -1.578125 -9.234375 L -1.78125 -10.234375 L 6.078125 -11.828125 L 6.28125 -10.828125 L 2.890625 -10.140625 L 4.75 -0.96875 L 3.671875 -0.75 Z M 1.8125 -9.921875 "/></g></g></g><g fill="#ffffff" fill-opacity="1"><g transform="translate(58.165107, 13.726039)"><g><path d="M 2.53125 0.078125 L 1.4375 0.046875 L 1.765625 -10.328125 L 2.859375 -10.296875 L 2.71875 -5.71875 L 8.625 -5.53125 L 8.765625 -10.109375 L 9.859375 -10.0625 L 9.53125 0.3125 L 8.4375 0.265625 L 8.59375 -4.484375 L 2.6875 -4.671875 Z M 2.53125 0.078125 "/></g></g></g><g fill="#ffffff" fill-opacity="1"><g transform="translate(76.530841, 15.316759)"><g><path d="M 10.125 -6.96875 L 4.90625 -8.375 L 3.953125 -4.90625 L 8.71875 -3.609375 L 8.453125 -2.625 L 3.6875 -3.921875 L 2.703125 -0.296875 L 7.96875 1.125 L 7.703125 2.09375 L 1.390625 0.375 L 4.109375 -9.640625 L 10.375 -7.9375 Z M 10.125 -6.96875 "/></g></g></g><g fill="#ffffff" fill-opacity="1"><g transform="translate(92.032174, 20.335278)"><g><path d="M 12.953125 -4.796875 L 9.9375 0.765625 C 9.320312 1.910156 8.539062 2.644531 7.59375 2.96875 C 6.644531 3.289062 5.625 3.15625 4.53125 2.5625 C 3.800781 2.164062 3.257812 1.679688 2.90625 1.109375 C 2.5625 0.535156 2.398438 -0.09375 2.421875 -0.78125 C 2.453125 -1.46875 2.660156 -2.164062 3.046875 -2.875 L 6.09375 -8.5 L 7.046875 -7.984375 L 4.03125 -2.421875 C 3.675781 -1.753906 3.5 -1.15625 3.5 -0.625 C 3.507812 -0.101562 3.65625 0.347656 3.9375 0.734375 C 4.21875 1.117188 4.59375 1.4375 5.0625 1.6875 C 5.832031 2.101562 6.554688 2.191406 7.234375 1.953125 C 7.910156 1.710938 8.476562 1.171875 8.9375 0.328125 L 11.984375 -5.3125 Z M 12.953125 -4.796875 "/></g></g></g><g fill="#ffffff" fill-opacity="1"><g transform="translate(107.295314, 29.699855)"><g><path d="M 3.09375 2.875 C 2.414062 2.28125 2.003906 1.613281 1.859375 0.875 C 1.710938 0.144531 1.789062 -0.601562 2.09375 -1.375 L 3.125 -1.125 C 2.90625 -0.519531 2.828125 0.0507812 2.890625 0.59375 C 2.960938 1.144531 3.257812 1.648438 3.78125 2.109375 C 4.082031 2.378906 4.410156 2.570312 4.765625 2.6875 C 5.117188 2.800781 5.457031 2.820312 5.78125 2.75 C 6.113281 2.6875 6.398438 2.519531 6.640625 2.25 C 7.003906 1.84375 7.132812 1.375 7.03125 0.84375 C 6.9375 0.320312 6.660156 -0.257812 6.203125 -0.90625 C 5.578125 -1.800781 5.234375 -2.59375 5.171875 -3.28125 C 5.109375 -3.96875 5.3125 -4.578125 5.78125 -5.109375 C 6.175781 -5.554688 6.628906 -5.835938 7.140625 -5.953125 C 7.648438 -6.066406 8.164062 -6.046875 8.6875 -5.890625 C 9.207031 -5.734375 9.679688 -5.460938 10.109375 -5.078125 C 10.765625 -4.503906 11.15625 -3.882812 11.28125 -3.21875 C 11.414062 -2.5625 11.363281 -1.921875 11.125 -1.296875 L 10.09375 -1.515625 C 10.195312 -1.804688 10.257812 -2.113281 10.28125 -2.4375 C 10.300781 -2.757812 10.242188 -3.078125 10.109375 -3.390625 C 9.984375 -3.710938 9.75 -4.023438 9.40625 -4.328125 C 9.125 -4.566406 8.8125 -4.738281 8.46875 -4.84375 C 8.132812 -4.957031 7.800781 -4.984375 7.46875 -4.921875 C 7.144531 -4.859375 6.867188 -4.691406 6.640625 -4.421875 C 6.328125 -4.078125 6.207031 -3.679688 6.28125 -3.234375 C 6.351562 -2.785156 6.613281 -2.234375 7.0625 -1.578125 C 7.382812 -1.097656 7.644531 -0.628906 7.84375 -0.171875 C 8.039062 0.273438 8.144531 0.710938 8.15625 1.140625 C 8.15625 1.453125 8.109375 1.757812 8.015625 2.0625 C 7.921875 2.375 7.757812 2.660156 7.53125 2.921875 C 7.207031 3.296875 6.796875 3.5625 6.296875 3.71875 C 5.796875 3.875 5.265625 3.890625 4.703125 3.765625 C 4.148438 3.640625 3.613281 3.34375 3.09375 2.875 Z M 3.09375 2.875 "/></g></g></g></g></g><g transform="matrix(1, 0, 0, 1, 125, 236)"><g clip-path="url(#4810913ef9)"><g fill="#ffffff" fill-opacity="1"><g transform="translate(3.566062, 10.686006)"><g><path d="M 12.796875 1.328125 L 11.765625 1.03125 C 11.929688 0.613281 12.023438 0.160156 12.046875 -0.328125 C 12.078125 -0.828125 11.988281 -1.332031 11.78125 -1.84375 C 11.582031 -2.351562 11.207031 -2.847656 10.65625 -3.328125 C 10.226562 -3.679688 9.757812 -3.9375 9.25 -4.09375 C 8.75 -4.257812 8.234375 -4.320312 7.703125 -4.28125 C 7.179688 -4.25 6.664062 -4.101562 6.15625 -3.84375 C 5.65625 -3.59375 5.203125 -3.226562 4.796875 -2.75 C 4.285156 -2.15625 3.941406 -1.503906 3.765625 -0.796875 C 3.585938 -0.0859375 3.601562 0.609375 3.8125 1.296875 C 4.019531 1.984375 4.441406 2.601562 5.078125 3.15625 C 5.546875 3.5625 6.0625 3.847656 6.625 4.015625 C 7.195312 4.179688 7.769531 4.207031 8.34375 4.09375 C 8.914062 3.976562 9.429688 3.679688 9.890625 3.203125 L 6.609375 0.375 L 7.25 -0.375 L 11.421875 3.21875 L 11.171875 3.515625 C 10.742188 4.003906 10.253906 4.394531 9.703125 4.6875 C 9.160156 4.976562 8.585938 5.148438 7.984375 5.203125 C 7.390625 5.253906 6.785156 5.175781 6.171875 4.96875 C 5.554688 4.757812 4.960938 4.410156 4.390625 3.921875 C 3.796875 3.410156 3.34375 2.847656 3.03125 2.234375 C 2.726562 1.617188 2.5625 0.976562 2.53125 0.3125 C 2.5 -0.351562 2.597656 -1.003906 2.828125 -1.640625 C 3.066406 -2.273438 3.425781 -2.875 3.90625 -3.4375 C 4.394531 -4.007812 4.945312 -4.453125 5.5625 -4.765625 C 6.1875 -5.085938 6.835938 -5.273438 7.515625 -5.328125 C 8.191406 -5.390625 8.859375 -5.316406 9.515625 -5.109375 C 10.171875 -4.910156 10.78125 -4.566406 11.34375 -4.078125 C 11.988281 -3.523438 12.445312 -2.921875 12.71875 -2.265625 C 12.988281 -1.617188 13.117188 -0.984375 13.109375 -0.359375 C 13.109375 0.253906 13.003906 0.816406 12.796875 1.328125 Z M 12.796875 1.328125 "/></g></g></g><g fill="#ffffff" fill-opacity="1"><g transform="translate(20.165267, 23.392149)"><g><path d="M 12.3125 0.203125 C 11.976562 0.867188 11.550781 1.429688 11.03125 1.890625 C 10.519531 2.359375 9.941406 2.707031 9.296875 2.9375 C 8.660156 3.164062 7.992188 3.265625 7.296875 3.234375 C 6.609375 3.203125 5.929688 3.019531 5.265625 2.6875 C 4.597656 2.363281 4.039062 1.941406 3.59375 1.421875 C 3.144531 0.910156 2.8125 0.335938 2.59375 -0.296875 C 2.382812 -0.941406 2.300781 -1.609375 2.34375 -2.296875 C 2.394531 -2.984375 2.582031 -3.65625 2.90625 -4.3125 C 3.226562 -4.976562 3.648438 -5.546875 4.171875 -6.015625 C 4.691406 -6.484375 5.269531 -6.828125 5.90625 -7.046875 C 6.539062 -7.273438 7.207031 -7.375 7.90625 -7.34375 C 8.601562 -7.3125 9.285156 -7.132812 9.953125 -6.8125 C 10.617188 -6.488281 11.175781 -6.0625 11.625 -5.53125 C 12.070312 -5.007812 12.398438 -4.429688 12.609375 -3.796875 C 12.816406 -3.160156 12.898438 -2.5 12.859375 -1.8125 C 12.816406 -1.132812 12.632812 -0.460938 12.3125 0.203125 Z M 11.265625 -0.234375 C 11.515625 -0.765625 11.664062 -1.300781 11.71875 -1.84375 C 11.769531 -2.394531 11.71875 -2.929688 11.5625 -3.453125 C 11.414062 -3.972656 11.164062 -4.445312 10.8125 -4.875 C 10.457031 -5.300781 10.007812 -5.644531 9.46875 -5.90625 C 8.925781 -6.164062 8.382812 -6.304688 7.84375 -6.328125 C 7.300781 -6.347656 6.78125 -6.257812 6.28125 -6.0625 C 5.78125 -5.863281 5.328125 -5.578125 4.921875 -5.203125 C 4.523438 -4.835938 4.203125 -4.394531 3.953125 -3.875 C 3.691406 -3.351562 3.535156 -2.8125 3.484375 -2.25 C 3.429688 -1.695312 3.484375 -1.164062 3.640625 -0.65625 C 3.796875 -0.144531 4.050781 0.320312 4.40625 0.75 C 4.757812 1.175781 5.207031 1.519531 5.75 1.78125 C 6.289062 2.039062 6.828125 2.179688 7.359375 2.203125 C 7.898438 2.222656 8.421875 2.140625 8.921875 1.953125 C 9.421875 1.765625 9.867188 1.484375 10.265625 1.109375 C 10.671875 0.734375 11.003906 0.285156 11.265625 -0.234375 Z M 11.265625 -0.234375 "/></g></g></g><g fill="#ffffff" fill-opacity="1"><g transform="translate(39.899008, 31.622098)"><g><path d="M 3.5 -9.859375 L 6.53125 -9.25 C 7.320312 -9.082031 8.019531 -8.800781 8.625 -8.40625 C 9.226562 -8.019531 9.71875 -7.546875 10.09375 -6.984375 C 10.476562 -6.429688 10.734375 -5.820312 10.859375 -5.15625 C 10.992188 -4.5 10.988281 -3.804688 10.84375 -3.078125 C 10.6875 -2.328125 10.40625 -1.664062 10 -1.09375 C 9.601562 -0.53125 9.113281 -0.0703125 8.53125 0.28125 C 7.945312 0.632812 7.304688 0.863281 6.609375 0.96875 C 5.910156 1.082031 5.1875 1.0625 4.4375 0.90625 L 1.40625 0.296875 Z M 2.6875 -0.484375 L 4.59375 -0.09375 C 5.445312 0.0820312 6.234375 0.0625 6.953125 -0.15625 C 7.679688 -0.375 8.285156 -0.753906 8.765625 -1.296875 C 9.242188 -1.835938 9.566406 -2.503906 9.734375 -3.296875 C 9.890625 -4.078125 9.851562 -4.804688 9.625 -5.484375 C 9.40625 -6.160156 9.007812 -6.75 8.4375 -7.25 C 7.875 -7.75 7.15625 -8.085938 6.28125 -8.265625 L 4.375 -8.65625 Z M 2.6875 -0.484375 "/></g></g></g><g fill="#ffffff" fill-opacity="1"><g transform="translate(59.71497, 34.397593)"><g><path d="M 2.53125 0 L 1.4375 0 L 1.453125 -10.375 L 2.546875 -10.375 Z M 2.53125 0 "/></g></g></g><g fill="#ffffff" fill-opacity="1"><g transform="translate(73.030806, 33.835075)"><g><path d="M 9.6875 -2 L 8.546875 -1.765625 L 0.671875 -9.171875 L 2.46875 -0.515625 L 1.40625 -0.296875 L -0.6875 -10.453125 L 0.546875 -10.703125 L 8.296875 -3.453125 L 6.546875 -11.9375 L 7.59375 -12.15625 Z M 9.6875 -2 "/></g></g></g><g fill="#ffffff" fill-opacity="1"><g transform="translate(93.179864, 28.42984)"><g><path d="M 2.28125 -1.109375 L 1.296875 -0.625 L -3.25 -9.953125 L -2.265625 -10.4375 L -0.265625 -6.3125 L 5.03125 -8.90625 L 3.03125 -13.03125 L 4.015625 -13.5 L 8.5625 -4.171875 L 7.578125 -3.703125 L 5.5 -7.96875 L 0.203125 -5.375 Z M 2.28125 -1.109375 "/></g></g></g><g fill="#ffffff" fill-opacity="1"><g transform="translate(111.078849, 18.413582)"><g><path d="M 5.078125 -11.203125 C 5.554688 -10.640625 5.90625 -10.03125 6.125 -9.375 C 6.351562 -8.71875 6.441406 -8.050781 6.390625 -7.375 C 6.347656 -6.695312 6.175781 -6.046875 5.875 -5.421875 C 5.570312 -4.796875 5.132812 -4.242188 4.5625 -3.765625 C 4 -3.273438 3.390625 -2.925781 2.734375 -2.71875 C 2.078125 -2.519531 1.414062 -2.445312 0.75 -2.5 C 0.0820312 -2.5625 -0.550781 -2.75 -1.15625 -3.0625 C -1.769531 -3.382812 -2.316406 -3.828125 -2.796875 -4.390625 C -3.285156 -4.953125 -3.640625 -5.5625 -3.859375 -6.21875 C -4.078125 -6.875 -4.160156 -7.539062 -4.109375 -8.21875 C -4.066406 -8.894531 -3.894531 -9.546875 -3.59375 -10.171875 C -3.289062 -10.796875 -2.851562 -11.351562 -2.28125 -11.84375 C -1.71875 -12.320312 -1.109375 -12.660156 -0.453125 -12.859375 C 0.203125 -13.066406 0.863281 -13.140625 1.53125 -13.078125 C 2.195312 -13.023438 2.832031 -12.835938 3.4375 -12.515625 C 4.050781 -12.203125 4.597656 -11.765625 5.078125 -11.203125 Z M 4.265625 -10.421875 C 3.878906 -10.859375 3.441406 -11.210938 2.953125 -11.484375 C 2.472656 -11.753906 1.960938 -11.921875 1.421875 -11.984375 C 0.890625 -12.046875 0.359375 -12 -0.171875 -11.84375 C -0.703125 -11.6875 -1.195312 -11.414062 -1.65625 -11.03125 C -2.101562 -10.644531 -2.441406 -10.207031 -2.671875 -9.71875 C -2.910156 -9.226562 -3.039062 -8.710938 -3.0625 -8.171875 C -3.082031 -7.640625 -3 -7.113281 -2.8125 -6.59375 C -2.632812 -6.082031 -2.359375 -5.609375 -1.984375 -5.171875 C -1.609375 -4.722656 -1.175781 -4.363281 -0.6875 -4.09375 C -0.195312 -3.820312 0.3125 -3.65625 0.84375 -3.59375 C 1.382812 -3.539062 1.921875 -3.59375 2.453125 -3.75 C 2.984375 -3.90625 3.476562 -4.179688 3.9375 -4.578125 C 4.382812 -4.960938 4.722656 -5.394531 4.953125 -5.875 C 5.179688 -6.363281 5.304688 -6.875 5.328125 -7.40625 C 5.359375 -7.945312 5.28125 -8.472656 5.09375 -8.984375 C 4.914062 -9.492188 4.640625 -9.972656 4.265625 -10.421875 Z M 4.265625 -10.421875 "/></g></g></g></g></g><g transform="matrix(1, 0, 0, 1, 199, 164)"><g clip-path="url(#86d16526ca)"><g fill="#ffffff" fill-opacity="1"><g transform="translate(1.683199, 42.464903)"><g><path d="M 36.875 -3.40625 C 35.664062 -2.457031 33.769531 -1.578125 31.1875 -0.765625 C 28.601562 0.0351562 26.210938 0.4375 24.015625 0.4375 C 19.878906 0.4375 16.234375 -0.410156 13.078125 -2.109375 C 9.929688 -3.816406 7.503906 -6.15625 5.796875 -9.125 C 4.097656 -12.09375 3.25 -15.425781 3.25 -19.125 C 3.25 -23.445312 4.160156 -27.191406 5.984375 -30.359375 C 7.816406 -33.523438 10.289062 -35.953125 13.40625 -37.640625 C 16.519531 -39.328125 19.925781 -40.171875 23.625 -40.171875 C 25.863281 -40.171875 27.972656 -39.90625 29.953125 -39.375 C 31.929688 -38.84375 33.707031 -38.140625 35.28125 -37.265625 L 33.515625 -32.375 C 32.347656 -33.03125 30.875 -33.601562 29.09375 -34.09375 C 27.320312 -34.59375 25.722656 -34.84375 24.296875 -34.84375 C 21.210938 -34.84375 18.488281 -34.21875 16.125 -32.96875 C 13.757812 -31.726562 11.9375 -29.953125 10.65625 -27.640625 C 9.375 -25.328125 8.734375 -22.632812 8.734375 -19.5625 C 8.734375 -16.707031 9.375 -14.160156 10.65625 -11.921875 C 11.9375 -9.691406 13.75 -7.960938 16.09375 -6.734375 C 18.445312 -5.503906 21.125 -4.890625 24.125 -4.890625 C 25.519531 -4.890625 26.875 -5.023438 28.1875 -5.296875 C 29.507812 -5.578125 30.609375 -5.972656 31.484375 -6.484375 L 31.484375 -14.34375 L 23.578125 -14.34375 L 23.578125 -19.453125 L 36.875 -19.453125 Z M 36.875 -3.40625 "/></g></g></g></g></g><g transform="matrix(1, 0, 0, 1, 127, 164)"><g clip-path="url(#a60aca8ce4)"><g fill="#ffffff" fill-opacity="1"><g transform="translate(1.49195, 42.464903)"><g><path d="M 45.21875 -41 L 45.21875 0 L 39.953125 0 L 39.953125 -25.71875 L 25.328125 -5 L 25.21875 -5 L 10.875 -25 L 10.875 0 L 5.71875 0 L 5.71875 -41 L 5.765625 -41 L 25.328125 -13.296875 L 45.171875 -41 Z M 45.21875 -41 "/></g></g></g></g></g><path stroke-linecap="butt" transform="matrix(0, -0.75, 0.75, 0, 188.55575, 231.80272)" fill="none" stroke-linejoin="miter" d="M 0.00258497 0.998584 L 118.148426 0.998584 " stroke="#ffffff" stroke-width="2" stroke-opacity="1" stroke-miterlimit="4"/></svg>